<svg width="166" height="67" viewBox="0 0 166 67" fill="none" xmlns="http://www.w3.org/2000/svg">
<path d="M60.3687 51.2807L52.7187 37.6307H47.9187C50.7687 37.3307 53.1687 36.2807 55.1187 34.6307C57.6687 32.5307 59.0187 29.8307 59.0187 26.6807C59.0187 23.5307 57.6687 20.8307 55.1187 18.7307C52.5687 16.4807 49.2687 15.4307 45.5187 15.4307H28.7187L18.8187 41.2307L8.61875 15.4307H0.21875V51.2807H2.31875V19.3307L14.9187 51.2807H17.3187L29.3187 19.4807V51.2807H37.1187V37.7807H44.1687L51.6687 51.2807H60.3687ZM37.1187 35.9807V17.2307H42.9687C47.1687 17.2307 50.0187 20.9807 50.0187 26.6807C50.0187 32.3807 47.1687 36.1307 42.9687 36.1307H37.1187V35.9807Z" fill="white"/>
<path d="M104.458 42.4316L100.708 35.5316H98.3078C99.6578 35.3816 100.858 34.7816 101.908 34.0316C103.258 32.9816 103.858 31.6316 103.858 29.9816C103.858 28.3316 103.258 27.1316 101.908 26.0816C100.558 25.0316 99.0578 24.4316 97.1078 24.4316H89.0078V42.4316H92.9078V35.6816H96.5078L100.258 42.4316H104.458ZM92.9078 34.7816V25.3316H95.7578C97.8578 25.3316 99.2078 27.1316 99.2078 29.9816C99.2078 32.8316 97.8578 34.6316 95.7578 34.6316H92.9078V34.7816Z" fill="white"/>
<path d="M116.165 42.4316C113.465 42.4316 111.215 41.5316 109.415 39.8816C107.615 38.0816 106.715 35.9816 106.715 33.4316C106.715 30.8816 107.615 28.6316 109.415 26.9816C111.215 25.1816 113.465 24.4316 116.165 24.4316C118.865 24.4316 121.115 25.3316 122.915 26.9816C124.715 28.7816 125.615 30.8816 125.615 33.4316C125.615 35.9816 124.715 38.2316 122.915 39.8816C121.115 41.6816 118.865 42.4316 116.165 42.4316ZM116.165 41.8316C117.815 41.8316 119.015 41.0816 120.065 39.5816C121.115 38.0816 121.565 35.9816 121.565 33.4316C121.565 30.8816 121.115 28.9316 120.065 27.2816C119.165 25.7816 117.815 25.0316 116.165 25.0316C114.515 25.0316 113.315 25.7816 112.265 27.2816C111.365 28.7816 110.765 30.8816 110.765 33.4316C110.765 35.9816 111.215 37.9316 112.265 39.5816C113.165 41.0816 114.515 41.8316 116.165 41.8316Z" fill="white"/>
<path d="M142.412 24.4316C142.412 24.4316 142.412 36.8816 142.412 39.1316C141.512 40.4816 140.012 41.2316 138.062 41.2316C134.762 41.2316 132.662 39.1316 132.662 35.5316V24.4316H128.762V35.0816C128.762 37.1816 129.512 38.9816 131.012 40.3316C132.512 41.6816 134.462 42.2816 136.862 42.2816C139.112 42.2816 140.762 41.6816 142.112 40.4816C142.412 40.1816 142.712 39.8816 142.862 39.5816L145.712 42.4316H146.312V24.4316H142.412Z" fill="white"/>
<path d="M158.319 24.4316C160.269 24.4316 161.769 25.0316 163.119 26.0816C164.469 27.1316 165.069 28.4816 165.069 29.9816C165.069 31.6316 164.469 32.8316 163.119 34.0316C161.769 35.0816 160.269 35.6816 158.319 35.6816H154.119V42.4316H150.219V24.4316H158.319ZM157.119 34.7816C159.219 34.7816 160.569 32.9816 160.569 30.1316C160.569 27.2816 159.219 25.4816 157.119 25.4816H154.269V34.7816H157.119Z" fill="white"/>
<path d="M81.2187 34.7812C81.2187 34.7812 81.2187 37.3312 81.2187 39.2812C80.7687 40.9312 79.2687 41.9812 77.1687 41.9812C75.3687 41.9812 74.1687 41.2312 73.1187 39.7312C72.0687 38.2312 71.6187 36.2812 71.6187 33.7312C71.6187 28.3312 74.1687 25.1812 78.3687 25.1812C79.8687 25.1812 81.0687 25.4813 81.9687 26.2313C83.0187 26.9813 83.4687 27.8813 83.4687 29.0813H84.2187C84.2187 27.7313 83.4688 26.3813 82.2688 25.4813C81.0688 24.5813 79.4187 24.2812 77.4687 24.2812C74.6187 24.2812 72.3687 25.1812 70.4187 26.8312C68.6187 28.6312 67.7188 30.8812 67.7188 33.4312C67.7188 35.9812 68.6187 38.2312 70.4187 40.0312C72.2187 41.8312 74.6187 42.5812 77.1687 42.5812C79.5687 42.5812 81.5187 41.8312 82.4187 40.4812L84.5187 42.4312H85.1187V34.7812H81.2187Z" fill="white"/>
</svg>
