<svg width="167" height="67" viewBox="0 0 167 67" fill="none" xmlns="http://www.w3.org/2000/svg">
<path fill-rule="evenodd" clip-rule="evenodd" d="M2.52592 56.8756C3.25937 56.8756 3.80148 56.6773 4.14908 56.2822C4.49667 55.8855 4.67046 55.3096 4.67046 54.5514V54.4714C4.67046 53.726 4.49986 53.1582 4.16024 52.7647C3.81902 52.3728 3.26734 52.176 2.5052 52.176H1.85785V56.8756H2.52592ZM0.21875 50.8979H2.58651C3.21951 50.8979 3.77438 50.9811 4.24953 51.1459C4.72627 51.3122 5.12169 51.5458 5.43899 51.8513C5.74991 52.1632 5.9827 52.5391 6.14214 52.9774C6.30159 53.4189 6.38131 53.9084 6.38131 54.449V54.5306C6.38131 55.0729 6.30159 55.5672 6.14214 56.0134C5.9924 56.4441 5.74894 56.8359 5.42942 57.1604C5.09204 57.4908 4.6858 57.7421 4.23996 57.8962C3.70422 58.0786 3.14099 58.1662 2.57535 58.1553H0.21875V50.8979ZM16.7899 50.8979H21.5047V52.1776H18.4178V53.8716H20.8876V55.0697H18.4178V56.8772H21.6657V58.1553H16.7899V50.8979ZM31.4493 50.8979H33.1793L34.8997 56.4693L36.6185 50.8979H38.1572L35.7495 58.1553H33.8681L31.4493 50.8979ZM48.3553 50.8979H53.0685V52.1776H49.9832V53.8716H52.453V55.0697H49.9816V56.8772H53.2295V58.1553H48.3553V50.8979ZM63.6014 50.8979H65.2405V56.8756H68.1839V58.1553H63.6014V50.8979ZM81.6092 56.9572C81.9121 56.9572 82.188 56.8996 82.4335 56.7844C82.6779 56.6709 82.8941 56.5042 83.0665 56.2966C83.2451 56.0739 83.3788 55.8186 83.4603 55.5448C83.556 55.2488 83.6038 54.9161 83.6038 54.5514V54.4714C83.6038 54.1195 83.556 53.7964 83.4667 53.5053C83.3843 53.2329 83.2518 52.9785 83.0761 52.7551C82.9025 52.5467 82.6846 52.38 82.4383 52.2672C82.1714 52.1486 81.8819 52.0897 81.59 52.0944C81.2712 52.0944 80.9905 52.1504 80.745 52.2624C80.4978 52.3744 80.2874 52.5311 80.112 52.7343C79.9366 52.9438 79.8043 53.1965 79.7134 53.4909C79.6209 53.7852 79.5747 54.1147 79.5747 54.481V54.561C79.5747 54.9337 79.6257 55.2664 79.7277 55.5608C79.8298 55.8551 79.9701 56.1046 80.1518 56.3078C80.3272 56.5157 80.5409 56.6773 80.7896 56.7892C81.0384 56.9012 81.3126 56.9572 81.6092 56.9572ZM81.5789 58.2657C81.0129 58.2657 80.4994 58.1729 80.0418 57.9873C79.6031 57.815 79.2063 57.5505 78.8779 57.2115C78.5491 56.8794 78.2938 56.4815 78.1285 56.0438C77.9501 55.574 77.8609 55.0749 77.8654 54.5722V54.4906C77.8654 53.95 77.9595 53.4509 78.1444 52.9982C78.3212 52.558 78.5885 52.1601 78.9289 51.8305C79.259 51.5074 79.6496 51.253 80.1008 51.0707C80.5536 50.8867 81.0495 50.7956 81.59 50.7956C82.1353 50.7956 82.636 50.8835 83.092 51.0595C83.5464 51.2354 83.9403 51.4834 84.2703 51.8017C84.5989 52.1325 84.8585 52.5257 85.0341 52.9582C85.219 53.4045 85.3115 53.902 85.3115 54.4506V54.5306C85.3115 55.0729 85.2222 55.5704 85.0436 56.0278C84.8651 56.4853 84.6131 56.8788 84.291 57.2115C83.9574 57.5494 83.5572 57.8136 83.1159 57.9873C82.6264 58.179 82.1044 58.2735 81.5789 58.2657ZM98.1819 54.3691C98.5933 54.3691 98.8994 54.2763 99.1019 54.0891C99.3044 53.9036 99.4049 53.6284 99.4049 53.2621V53.2221C99.4049 52.8366 99.298 52.5599 99.086 52.3952C98.8739 52.2288 98.571 52.1456 98.1803 52.1456H97.3512V54.3691H98.1819ZM95.7217 50.8979H98.2218C99.1051 50.8979 99.7859 51.0899 100.264 51.4754C100.743 51.8625 100.982 52.4399 100.982 53.2109V53.2525C100.982 53.6364 100.92 53.9724 100.79 54.2523C100.663 54.5322 100.481 54.7674 100.245 54.9561C99.9922 55.1543 99.7013 55.2981 99.3905 55.3784C99.0557 55.4696 98.6826 55.516 98.2712 55.516H97.3512V58.1553H95.7217V50.8979ZM111.282 50.8979H113.447L115.137 55.4136L116.805 50.8979H118.931V58.1553H117.303V53.059L115.298 58.1553H114.763L112.749 53.059V58.1553H111.282V50.8979ZM129.727 50.8979H134.44V52.1776H131.355V53.8716H133.823V55.0697H131.355V56.8772H134.601V58.1553H129.727V50.8979ZM144.973 50.8979H146.873L149.625 55.6775V50.8979H151.083V58.1553H149.444L146.43 52.9886V58.1553H144.973V50.8979ZM163.283 52.176H161.33V50.8963H166.885V52.176H164.932V58.1553H163.283V52.176ZM15.5127 39.8751V27.9101H5.78658V39.8751H0.263395V11.2839H5.78658V22.9689H15.5127V11.2839H21.0359V39.8735H15.5127M52.2139 30.0776C52.2139 31.6036 51.9412 32.9824 51.3943 34.2125C50.8732 35.4072 50.1103 36.4803 49.1541 37.3637C48.1859 38.2467 47.0579 38.9352 45.8313 39.392C44.5191 39.8819 43.1287 40.1269 41.7287 40.115C40.2618 40.115 38.8938 39.8751 37.6262 39.392C36.3996 38.9358 35.2716 38.2478 34.3034 37.3653C33.3468 36.4822 32.5839 35.4091 32.0632 34.2141C31.5147 32.9824 31.242 31.6036 31.242 30.0776V11.2839H36.7652V29.8744C36.7652 31.5348 37.2069 32.8257 38.0918 33.7502C38.9751 34.6732 40.1805 35.1355 41.708 35.1355C43.2355 35.1355 44.4473 34.6732 45.3449 33.7502C46.2426 32.8257 46.6923 31.5348 46.6923 29.8744V11.2855H52.2154L52.2139 30.0776ZM73.267 16.265V39.8751H67.7438V16.265H60.2993V11.2839H80.7115V16.2634L73.267 16.265ZM100.124 16.265V39.8751H94.6008V16.265H87.1547V11.2839H107.568V16.2634L100.124 16.265ZM129.862 25.5795C129.862 24.215 129.841 23.0841 129.802 22.1883C129.777 21.441 129.703 20.6962 129.581 19.9585C129.473 19.3699 129.326 18.8948 129.138 18.5333C128.663 17.6108 127.892 16.8755 126.949 16.4458C126.298 16.1545 125.592 16.0104 124.879 16.0235C124.161 16.0118 123.449 16.1558 122.791 16.4458C122.209 16.701 121.689 17.0772 121.263 17.5495C120.995 17.8431 120.772 18.1746 120.6 18.5333C120.398 18.9878 120.256 19.4669 120.177 19.9585C120.069 20.5472 119.996 21.291 119.956 22.1867C119.912 23.3171 119.892 24.4483 119.897 25.5795C119.897 26.9455 119.916 28.0765 119.956 28.9738C119.981 29.7207 120.055 30.4651 120.179 31.2021C120.284 31.7907 120.426 32.2658 120.6 32.6257C120.774 32.9888 120.994 33.3167 121.263 33.6111C121.663 34.067 122.174 34.4333 122.791 34.7148C123.449 35.0048 124.161 35.1488 124.879 35.1371C125.656 35.1371 126.346 34.9963 126.949 34.7148C127.522 34.4558 128.035 34.0799 128.456 33.6111C128.724 33.3167 128.952 32.9872 129.138 32.6273C129.326 32.2658 129.473 31.7907 129.581 31.2021C129.687 30.6134 129.762 29.8696 129.802 28.9738C129.841 28.0765 129.862 26.9455 129.862 25.5795ZM135.385 25.5795C135.385 26.8112 135.373 27.9629 135.345 29.0346C135.318 30.1048 135.218 31.1077 135.046 32.0451C134.882 32.9546 134.6 33.8387 134.207 34.6748C133.79 35.5337 133.229 36.3145 132.549 36.983C131.583 37.969 130.437 38.7596 129.173 39.312C127.936 39.8479 126.504 40.115 124.879 40.115C123.253 40.115 121.816 39.8479 120.565 39.312C119.293 38.7636 118.14 37.9726 117.169 36.983C116.488 36.3146 115.927 35.5338 115.51 34.6748C115.118 33.8403 114.843 32.9553 114.692 32.0451C114.533 31.1077 114.439 30.1048 114.412 29.033C114.384 27.8821 114.371 26.7308 114.372 25.5795C114.372 24.3478 114.386 23.1977 114.412 22.1276C114.439 21.0558 114.531 20.0529 114.692 19.1155C114.852 18.1782 115.125 17.3016 115.512 16.4858C115.928 15.626 116.489 14.8446 117.17 14.176C118.141 13.1871 119.293 12.3962 120.563 11.8469C121.816 11.3127 123.255 11.0439 124.879 11.0439C126.504 11.0439 127.936 11.3127 129.173 11.8469C130.412 12.3828 131.536 13.1586 132.55 14.176C133.268 14.899 133.82 15.6684 134.207 16.4858C134.593 17.3016 134.873 18.1782 135.046 19.1155C135.219 20.0529 135.318 21.0558 135.345 22.1276C135.373 23.1993 135.385 24.3494 135.385 25.5795ZM161.922 39.8751L150.635 22.3275V39.8751H145.111V11.2839H150.075L161.361 28.7915V11.2839H166.885V39.8735H161.922" fill="white"/>
</svg>
