<svg width="166" height="68" viewBox="0 0 166 68" fill="none" xmlns="http://www.w3.org/2000/svg">
<g clip-path="url(#clip0_2494_20881)">
<path d="M116.881 40.1094H50.332V43.9758H116.881V40.1094Z" fill="white"/>
<path d="M50.332 67.5264H54.4328V63.0742H77.7485V47.8428H50.332V67.5264ZM54.4328 51.7093H73.6477V59.2078H54.4328V51.7093Z" fill="white"/>
<path d="M81.6172 63.0742H97.0829V67.5264H101.301V63.0742H116.766V47.8428H81.6172V63.0742ZM101.301 51.7093H112.783V59.2078H101.301V51.7093ZM85.7179 51.7093H97.0829V59.2078H85.7179V51.7093Z" fill="white"/>
<path d="M85.5984 0.859375H69.8984V36.1259H85.5984V0.859375ZM81.4977 32.2595H73.9991V4.84297H81.4977V32.2595Z" fill="white"/>
<path d="M93.6788 12.693L101.177 4.84297V36.2431H105.278V12.693L112.659 4.84297V36.2431H116.76V0.859375H111.019L105.278 6.95193V0.859375H99.537L89.5781 11.1699V36.2431H93.6788V12.693Z" fill="white"/>
<path d="M61.8141 36.2431H65.9148V32.3766V0.859375H60.1738L50.2148 11.1699V32.2595V36.1259H54.3156H61.8141V36.2431ZM54.4328 12.693L61.9313 4.84297V32.2595H54.4328V12.693Z" fill="white"/>
</g>
<defs>
<clipPath id="clip0_2494_20881">
<rect width="66.6666" height="66.6666" fill="white" transform="translate(50.2148 0.859375)"/>
</clipPath>
</defs>
</svg>
