<svg width="166" height="67" viewBox="0 0 166 67" fill="none" xmlns="http://www.w3.org/2000/svg">
<path d="M85.0855 36.664H83.3049L74.3556 19.7803H67.4727V48.2581H73.6676V33.3686H75.6921L81.766 45.4925H86.6244L92.6983 33.3686H94.7228V48.2581H100.918V19.7803H94.0348L85.0855 36.664Z" fill="white"/>
<path fill-rule="evenodd" clip-rule="evenodd" d="M155.638 30.561H144.543V25.8829H163.31V19.78H138.078V48.2578H155.638C161.896 48.2578 165.205 44.7191 165.205 39.3895C165.205 34.0598 161.493 30.561 155.638 30.561ZM155.114 42.3565H144.543V36.4606H155.121C157.541 36.4606 158.671 37.2735 158.671 39.3895C158.671 41.5054 157.537 42.3601 155.114 42.3601V42.3565Z" fill="white"/>
<path d="M127.343 19.7803H135.313L122.334 33.5574L135.641 48.2581H127.383L117.163 36.8673H113.568V48.2581H107.027V19.7803H113.568V30.7646H117.163L127.343 19.7803Z" fill="white"/>
<path fill-rule="evenodd" clip-rule="evenodd" d="M0.222656 33.9174C0.222656 19.1652 12.3096 7.20605 27.0619 7.20605C41.8143 7.20605 53.9012 19.1652 53.9012 33.9174C53.9012 48.6697 41.8143 60.6288 27.0619 60.6288C12.3096 60.6288 0.222656 48.6697 0.222656 33.9174ZM20.8568 33.9179L30.2499 24.9033L45.9331 24.9306L40.314 30.9129H32.5982L20.8568 42.9324L7.77344 29.5775L12.47 24.9033H21.0197L16.4957 29.5775L20.8568 33.9179ZM46.3539 32.582H33.2707L22.8711 42.932H31.2579L35.9543 38.2578H40.3155L46.3539 32.582Z" fill="white"/>
</svg>
